<svg width="968" height="200" viewBox="0 0 968 200" fill="none" xmlns="http://www.w3.org/2000/svg">
<g clip-path="url(#clip0_17567_3808)">
<path d="M482.9 170V30H513.1L557.1 113.8L601 30H631.2V170H605.4V72.2L565.6 148.6H548.6L508.6 72.2V170H482.9ZM439.3 30H467.9L433.7 170H396.1L369.3 67.8L345.2 170H307.6L271 30H299.4L327.4 138.8L355 30H384L413.4 138.8L439.3 30Z" fill="#FF5331"/>
<path d="M756.9 30V55.6H714.3V170H688.4V55.6H645.6V30H756.9Z" fill="#FF5331"/>
<path d="M968 170H949V30H968V170ZM813.8 170H792L850.6 30H875.4L934 170H912.4L863.2 49.8L813.8 170ZM822.2 116H903.6V133.8H822.2V116Z" fill="#303030"/>
<path d="M126.7 115.7C124.9 108.8 128.9 101.7 135.8 99.9L156.5 94.3C183.9 86.9 212.1 103.3 219.5 130.8L230.6 172.4C232.4 179.3 228.4 186.4 221.5 188.2L200.8 193.8C173.4 201.2 145.2 184.8 137.8 157.3L126.7 115.7Z" fill="#FF5331"/>
<path d="M6.40001 171.6C0.300009 168 -1.89999 160.1 1.70001 154L12.4 135.4C26.6 110.7 58.1 102.2 82.6 116.5L119.7 138C125.8 141.6 128 149.5 124.4 155.6L113.7 174.2C99.5 198.9 68 207.4 43.5 193.1L6.40001 171.6Z" fill="#FF5331"/>
<path d="M87.2 104.7C80.3 106.5 73.3 102.5 71.5 95.6001L66 74.8001C58.6 47.3001 74.9 18.9001 102.4 11.6001L143.8 0.500065C150.7 -1.29993 157.7 2.70007 159.5 9.60007L165 30.4001C172.4 57.9001 156.1 86.3001 128.6 93.6001L87.2 104.7Z" fill="#FF5331"/>
</g>
<defs>
<clipPath id="clip0_17567_3808">
<rect width="968" height="200" fill="white"/>
</clipPath>
</defs>
</svg>
